<svg width="126.501" height="74.102" viewBox="0 0 126.501 74.102" xmlns="http://www.w3.org/2000/svg"><g id="svgGroup" stroke-linecap="round" fill-rule="evenodd" font-size="9pt" stroke="#a94dff" stroke-width="0.25mm" fill="#a94dff" style="stroke:#a94dff;stroke-width:0.25mm;fill:#a94dff"><path d="M 59.301 26.101 L 58.501 27.301 L 40.801 27.301 Q 43.001 25.001 43.001 21.501 Q 43.001 15.001 34.501 15.001 Q 23.801 15.001 23.801 21.801 Q 23.801 25.201 27.201 27.201 Q 30.601 29.201 35.451 30.351 Q 40.301 31.501 45.201 33.201 Q 50.101 34.901 53.501 38.851 Q 56.901 42.801 56.901 49.101 Q 56.901 61.801 49.301 67.951 Q 41.701 74.101 25.901 74.101 Q 10.101 74.101 4.301 68.501 Q 0.001 64.301 0.001 56.901 Q 0.001 54.101 0.601 50.801 L 0.901 49.201 L 18.901 49.201 L 18.701 50.401 Q 18.501 51.401 18.501 52.201 Q 18.501 59.101 28.451 59.101 Q 38.401 59.101 38.401 52.901 Q 38.401 49.601 35.001 47.501 Q 31.601 45.401 26.751 44.001 Q 21.901 42.601 17.051 40.751 Q 12.201 38.901 8.801 34.951 Q 5.401 31.001 5.401 25.101 Q 5.401 0.001 37.701 0.001 Q 49.501 0.001 55.551 4.451 Q 61.601 8.901 61.601 16.801 Q 61.601 19.701 60.851 22.351 Q 60.101 25.001 59.301 26.101 Z M 62.701 50.801 L 64.001 43.401 L 82.001 43.401 L 81.401 46.701 Q 81.001 49.201 81.001 51.801 Q 81.001 54.401 82.301 56.101 Q 84.301 58.601 88.901 58.601 Q 93.501 58.601 96.351 56.101 Q 99.201 53.601 100.401 46.901 L 108.601 0.601 L 126.501 0.601 L 118.101 48.301 Q 115.801 61.601 108.101 67.851 Q 100.401 74.101 86.201 74.101 Q 62.101 74.101 62.101 56.601 Q 62.101 53.901 62.701 50.801 Z" vector-effect="non-scaling-stroke"/></g></svg>